<svg xmlns="http://www.w3.org/2000/svg" width="17" height="10" viewBox="0 0 17 10">
    <path fill="#FFF" fill-rule="evenodd" d="M10.936.293c-.39.39-.39 1.024 0 1.414l3.15 3.15-3.15 3.15c-.39.39-.39 1.024 0 1.414.39.39 1.023.39 1.414 0l3.857-3.857c.39-.39.39-1.023 0-1.414L12.35.293c-.39-.39-1.024-.39-1.414 0zm-5.015 0c-.39-.39-1.023-.39-1.414 0L.65 4.15c-.39.39-.39 1.024 0 1.414l3.857 3.857c.39.39 1.024.39 1.414 0 .39-.39.39-1.023 0-1.414l-3.15-3.15 3.15-3.15c.39-.39.39-1.024 0-1.414z"/>
</svg>
